<svg width="251" height="86" viewBox="0 0 251 86" fill="none" xmlns="http://www.w3.org/2000/svg">
<g clip-path="url(#clip0)">
<path d="M110.33 48.28C110.13 52.63 108.91 55.93 106.66 58.16C104.41 60.39 101.23 61.51 97.1201 61.52C92.8001 61.52 89.4901 60.1 87.1901 57.26C84.8901 54.42 83.7401 50.37 83.7501 45.11V38.68C83.7501 33.44 84.9401 29.4 87.3101 26.56C89.6801 23.72 92.9901 22.3 97.2201 22.3C101.38 22.3 104.54 23.46 106.7 25.79C108.86 28.12 110.09 31.45 110.38 35.79H102.65C102.58 33.12 102.16 31.27 101.4 30.22C100.64 29.22 99.2501 28.69 97.2201 28.69C95.4701 28.53 93.7801 29.37 92.8401 30.85C92.0001 32.3 91.5301 34.68 91.4801 38V45.21C91.4801 49 91.9001 51.61 92.7501 53.02C93.7001 54.49 95.3801 55.3 97.1201 55.14C99.1201 55.14 100.54 54.65 101.31 53.66C102.08 52.67 102.51 50.88 102.62 48.3L110.33 48.28Z" fill="#A70050"/>
<path d="M138.24 46.34C138.3 49.05 137.78 51.74 136.72 54.24C135.82 56.39 134.32 58.23 132.4 59.54C130.51 60.8 128.27 61.45 126 61.41C123.74 61.44 121.51 60.81 119.61 59.58C117.67 58.27 116.15 56.43 115.24 54.28C114.16 51.78 113.63 49.07 113.68 46.34V45.16C113.62 42.42 114.14 39.69 115.21 37.16C116.11 35.01 117.62 33.17 119.55 31.86C121.46 30.6 123.71 29.95 126 30C129.29 29.91 132.45 31.31 134.6 33.81C136.84 36.35 138.06 39.74 138.25 43.99L138.24 46.34ZM130.82 45.11C130.95 42.82 130.51 40.54 129.55 38.46C128.65 36.47 126.3 35.6 124.32 36.5C123.45 36.9 122.76 37.59 122.36 38.46C121.43 40.55 121.01 42.83 121.13 45.11V46.31C121 48.61 121.44 50.91 122.42 53C123.07 54.39 124.46 55.28 126 55.3C127.53 55.28 128.89 54.36 129.5 52.96C130.45 50.92 130.89 48.69 130.79 46.44L130.82 45.11Z" fill="#A70050"/>
<path d="M143.06 61V22.83H153.16C157.61 22.83 161.16 24.24 163.81 27.07C166.46 29.91 167.81 33.78 167.86 38.71V44.9C167.86 49.91 166.53 53.84 163.86 56.71C161.19 59.58 157.57 61.01 153 61H143.06ZM150.77 29.26V54.6H153.08C155.65 54.6 157.45 53.92 158.5 52.6C159.55 51.28 160.1 48.91 160.15 45.6V38.92C160.15 35.36 159.66 32.87 158.66 31.46C157.66 30.05 155.97 29.32 153.58 29.25L150.77 29.26Z" fill="#A70050"/>
<path d="M190.11 48.31H180.11V54.88H192V61H172.74V30.45H192V36.64H180.15V42.15H190.15L190.11 48.31Z" fill="#A70050"/>
<path d="M214.31 53.18H203.8L201.75 61H193.6L205.53 22.84H212.58L224.58 61H216.35L214.31 53.18ZM205.47 46.76H212.6L209 33.16L205.47 46.76Z" fill="#A70050"/>
<path d="M237.58 50.48H234.94V61H227.49V30.45H238.55C241.93 30.45 244.55 31.25 246.41 32.84C248.33 34.56 249.35 37.06 249.2 39.63C249.26 41.46 248.89 43.28 248.12 44.94C247.32 46.43 246.07 47.64 244.56 48.41L250.14 60.68V61H242.14L237.58 50.48ZM234.94 44.32H238.42C240.66 44.32 241.78 43.04 241.78 40.47C241.78 37.93 240.71 36.66 238.58 36.64H234.94V44.32Z" fill="#A70050"/>
<path d="M20.58 84.71L58.95 50.74L48.6 0L24.23 21.58L40.63 49.98L20.58 84.71Z" fill="#A70050"/>
<path d="M24.23 21.58L20.32 14.79L0 49.98L20.13 84.84L9.83 34.33L24.23 21.58Z" fill="#272D5B"/>
<path d="M40.63 49.98L24.23 21.58L9.82996 34.33L20.13 84.84L20.23 85.02L20.58 84.71L40.63 49.98Z" fill="#A70050"/>
<path d="M40.63 49.98L24.23 21.58L9.82996 34.33L20.13 84.84L20.23 85.02L20.58 84.71L40.63 49.98Z" fill="#3C467E"/>
</g>
<defs>
<clipPath id="clip0">
<rect width="250.14" height="85.02" fill="white"/>
</clipPath>
</defs>
</svg>
