<svg width="45" height="43" viewBox="0 0 45 43" fill="none" xmlns="http://www.w3.org/2000/svg">
<g clip-path="url(#clip0)">
<path d="M12.1635 43C9.77074 42.2841 7.96702 41.1165 6.75566 39.4972C5.5443 37.878 4.93862 35.7302 4.93862 33.0504V28.3031C4.93862 24.5327 3.2913 22.6492 0 22.6492V20.4144C3.2913 20.4144 4.93862 18.5442 4.93862 14.8073V9.88602C4.95193 7.26313 5.55761 5.14541 6.75566 3.52618C7.95371 1.90695 9.7541 0.729324 12.1635 0L12.7193 1.69618C9.24161 2.81693 7.50444 5.61713 7.50444 10.1001V14.6768C7.50444 18.203 6.19324 20.488 3.57085 21.5318C6.19324 22.6358 7.50444 24.9141 7.50444 28.3667V33.2679C7.56101 37.4498 9.32148 40.1229 12.7858 41.2837L12.1635 43Z" fill="white"/>
<path d="M21.9443 41.2804C25.4087 40.1195 27.1658 37.4464 27.2257 33.2645V28.4503C27.2257 24.8271 28.6002 22.5254 31.3523 21.5519C28.6002 20.5783 27.2257 18.2933 27.2257 14.6969V10.1202C27.2257 5.59371 25.4852 2.78682 22.0109 1.69618L22.5667 0C25.0027 0.729324 26.8164 1.91698 28.0078 3.55629C29.1992 5.1956 29.7915 7.35011 29.7915 10.0131V14.8039C29.7915 18.5442 31.4389 20.411 34.7302 20.411V22.6458C31.4389 22.6458 29.7915 24.5294 29.7915 28.2964V33.0471C29.7915 35.7268 29.1859 37.8747 27.9745 39.4939C26.7631 41.1131 24.9594 42.2807 22.5667 42.9967L21.9443 41.2804Z" fill="#A70050"/>
<path d="M44.8336 11.793H18.2103V38.5571H44.8336V11.793Z" stroke="#3C467E" stroke-miterlimit="10"/>
<path d="M41.5057 8.44739H14.8824V35.2116H41.5057V8.44739Z" stroke="#A70050" stroke-miterlimit="10"/>
</g>
<defs>
<clipPath id="clip0">
<rect width="45" height="43" fill="white"/>
</clipPath>
</defs>
</svg>
