<svg width="34" height="33" viewBox="0 0 34 33" fill="none" xmlns="http://www.w3.org/2000/svg">
<path d="M17 2.88C21.26 2.88 21.78 2.9 23.46 2.97C25.23 2.91 26.95 3.53 28.27 4.71C29.45 6.03 30.08 7.75 30.02 9.52C30.1 11.21 30.12 11.72 30.12 15.99C30.12 20.26 30.1 20.77 30.03 22.45C30.09 24.22 29.46 25.94 28.28 27.26C26.96 28.44 25.24 29.07 23.47 29.01C21.78 29.09 21.28 29.1 17.01 29.1C12.74 29.1 12.23 29.08 10.55 29.01C8.77999 29.07 7.05999 28.44 5.73999 27.26C4.55999 25.94 3.92999 24.22 3.98999 22.45C3.90999 20.76 3.88998 20.26 3.88998 15.99C3.88998 11.72 3.90998 11.21 3.97998 9.53C3.91998 7.76 4.53999 6.04 5.71999 4.72C7.03999 3.54 8.76998 2.91 10.54 2.98C12.22 2.9 12.73 2.88 17 2.88ZM17 0C12.66 0 12.11 0.02 10.4 0.1C7.90998 0.05 5.49998 0.98 3.67998 2.69C1.97998 4.51 1.04998 6.92 1.08998 9.41C1.00998 11.12 0.98999 11.66 0.98999 16.01C0.98999 20.36 1.00998 20.9 1.08998 22.61C1.03998 25.1 1.96998 27.51 3.67998 29.33C5.49998 31.03 7.90998 31.96 10.4 31.92C12.11 32 12.65 32.02 17 32.02C21.35 32.02 21.89 32 23.6 31.92C26.09 31.97 28.5 31.04 30.32 29.33C32.02 27.51 32.95 25.1 32.91 22.61C32.99 20.9 33.01 20.36 33.01 16.01C33.01 11.66 32.99 11.12 32.91 9.41C32.96 6.92 32.03 4.51 30.32 2.69C28.5 0.99 26.09 0.06 23.6 0.1C21.89 0.02 21.34 0 17 0Z" fill="#A70050"/>
<path d="M17 7.79004C12.46 7.79004 8.78003 11.47 8.78003 16.01C8.78003 20.55 12.46 24.23 17 24.23C21.54 24.23 25.22 20.55 25.22 16.01C25.22 11.47 21.54 7.79004 17 7.79004ZM17 21.33C14.06 21.33 11.67 18.95 11.67 16C11.67 13.05 14.05 10.67 17 10.67C19.94 10.67 22.33 13.05 22.33 16C22.33 18.95 19.95 21.33 17 21.33Z" fill="#A70050"/>
<path d="M25.54 9.38004C26.6004 9.38004 27.46 8.52043 27.46 7.46004C27.46 6.39965 26.6004 5.54004 25.54 5.54004C24.4796 5.54004 23.62 6.39965 23.62 7.46004C23.62 8.52043 24.4796 9.38004 25.54 9.38004Z" fill="#A70050"/>
</svg>
