<svg width="32" height="32" viewBox="0 0 32 32" fill="none" xmlns="http://www.w3.org/2000/svg">
<path d="M30.6 0H1.35C0.599998 0 0 0.6 0 1.35V30.7C0 31.4 0.599998 32 1.35 32H30.65C31.4 32 32 31.4 32 30.65V1.35C31.95 0.6 31.35 0 30.6 0ZM9.5 27.5H4.5V12H9.5V27.5ZM7.13 9.99C5.63 9.99 4.38 8.74 4.38 7.24C4.38 5.74 5.63 4.49 7.13 4.49C8.63 4.49 9.88 5.74 9.88 7.24C9.88 8.79 8.68 9.99 7.13 9.99ZM27.5 27.5H22.5V20.1C22.5 18.35 22.45 16.05 19.96 16.05C17.42 16.05 17 18 17 19.95V27.5H12.5V12H17V14.5H17.05C17.72 13.31 19.3 12.08 21.66 12.08C26.58 12.08 27.5 15.19 27.5 19.25V27.5Z" fill="#A70050"/>
</svg>
