<svg width="33" height="34" viewBox="0 0 33 34" fill="none" xmlns="http://www.w3.org/2000/svg">
<path fill-rule="evenodd" clip-rule="evenodd" d="M13.2001 1.3001C6.83005 2.5201 1.68005 7.6101 0.360051 13.9601C-1.42995 22.5401 3.69005 30.3501 11.2701 32.9601C12.0901 33.1601 12.2901 32.5501 12.2901 32.1401C12.2901 31.7301 12.2901 30.7101 12.2901 29.2701C7.78005 30.2901 6.76005 27.2201 6.76005 27.2201C5.94005 25.3801 4.92005 24.7601 4.92005 24.7601C3.49005 23.7401 5.12005 23.7401 5.12005 23.7401C6.76005 23.9401 7.58005 25.3801 7.58005 25.3801C9.01005 28.0401 11.4701 27.2201 12.2901 26.8101C12.4901 25.7901 12.9001 24.9701 13.3101 24.5601C9.62005 24.1501 5.93005 22.7201 5.93005 16.3701C5.93005 14.5301 6.54005 13.0901 7.57005 12.0701C7.37005 11.6601 6.75005 10.0201 7.77005 7.7701C7.77005 7.7701 9.20005 7.3601 12.2801 9.4101C13.51 9.0001 14.9401 8.8001 16.3801 8.8001C17.8201 8.8001 19.2501 9.0001 20.4801 9.4101C23.5501 7.3601 24.9901 7.7701 24.9901 7.7701C25.8101 10.0201 25.4001 11.6601 25.1901 12.0701C26.2101 13.3001 26.8301 14.7301 26.8301 16.3701C26.8301 22.7201 22.9401 23.9501 19.2501 24.3601C19.8601 25.1801 20.4801 26.2001 20.4801 27.6401C20.4801 29.8901 20.4801 31.5301 20.4801 32.1501C20.4801 32.5601 20.68 33.1701 21.7101 32.9701C28.2701 30.7201 32.98 24.5701 32.98 17.4001C32.76 7.3301 23.6 -0.679905 13.2001 1.3001Z" fill="#A70050"/>
</svg>
