<svg width="40" height="32" viewBox="0 0 40 32" fill="none" xmlns="http://www.w3.org/2000/svg">
<path d="M39.17 3.75002C37.72 4.41002 36.16 4.81002 34.58 4.96002C36.25 3.99002 37.49 2.44002 38.09 0.610021C36.51 1.55002 34.79 2.20002 33 2.54002C31.54 0.940021 29.48 0.020021 27.32 2.10159e-05C22.92 -0.00997898 19.34 3.55002 19.33 7.96002C19.33 7.97002 19.33 8.06002 19.33 8.07002C19.35 8.69002 19.43 9.31002 19.58 9.92002C13.05 9.57002 6.96 6.48002 2.82 1.41002C2.08 2.64002 1.7 4.05002 1.71 5.48002C1.73 8.19002 3.06 10.71 5.29 12.26C3.99 12.25 2.72 11.91 1.6 11.27V11.6C1.62 15.41 4.32 18.68 8.07 19.41C7.39 19.55 6.69 19.63 5.99 19.65C5.5 19.67 5.01 19.63 4.52 19.53C5.58 22.78 8.55 25.03 11.97 25.16C9.12 27.42 5.59 28.63 1.95 28.58C1.3 28.6 0.64 28.56 0 28.46C3.75 30.75 8.06 31.97 12.46 32C24.98 32.1 35.2 22.03 35.3 9.51002C35.3 9.39002 35.3 8.94002 35.3 8.82002V7.86002C36.77 6.67002 38.07 5.29002 39.17 3.75002Z" fill="#A70050"/>
</svg>
