<svg width="567" height="905" viewBox="0 0 567 905" fill="none" xmlns="http://www.w3.org/2000/svg">
<g clip-path="url(#clip0)">
<path d="M130.01 463.07C110.59 457.29 95.96 447.87 86.14 434.81C76.31 421.74 71.4 404.41 71.4 382.79V344.47C71.4 314.07 58.05 298.87 31.34 298.87V280.84C58.04 280.84 71.4 265.76 71.4 235.58V195.87C71.51 174.71 76.43 157.61 86.14 144.54C95.85 131.48 110.47 122 130.01 116.1L134.52 129.8C106.31 138.82 92.21 161.42 92.21 197.6V234.53C92.21 262.97 81.57 281.41 60.3 289.85C81.57 298.75 92.21 317.13 92.21 344.99V384.53C92.67 418.28 106.95 439.84 135.04 449.21L130.01 463.07Z" stroke="#272D5B" stroke-miterlimit="10"/>
<path d="M209.35 530.55C237.44 521.19 251.72 499.63 252.18 465.87V427.03C252.18 397.79 263.33 379.23 285.65 371.37C263.34 363.51 252.18 345.07 252.18 316.05V279.12C252.18 242.59 238.07 219.93 209.87 211.15L214.38 197.45C234.15 203.34 248.86 212.91 258.51 226.15C268.16 239.39 272.99 256.75 272.99 278.25V316.92C272.99 347.09 286.34 362.18 313.04 362.18V380.21C286.34 380.21 272.99 395.41 272.99 425.81V464.13C272.99 485.75 268.07 503.09 258.25 516.15C248.42 529.21 233.8 538.63 214.38 544.41L209.35 530.55Z" fill="#272D5B"/>
<path d="M309.02 904.04C359.59 888.99 397.67 864.46 423.25 830.45C448.84 796.43 461.62 751.29 461.62 695V595.22C461.62 516.06 496.39 476.48 565.92 476.48V429.52C496.39 429.52 461.62 390.24 461.62 311.69V208.3C461.32 153.22 448.53 108.68 423.25 74.6601C397.97 40.6501 359.89 15.9701 309.02 0.620117L297.28 36.2901C370.73 59.7701 407.44 118.62 407.44 212.82V308.99C407.44 383.04 435.14 431.05 490.52 453.02C435.14 476.2 407.44 524.06 407.44 596.59V699.53C406.24 787.42 369.07 843.55 295.92 867.93L309.02 904.04Z" stroke="#A70050" stroke-miterlimit="10"/>
<path d="M543.05 160.22H60.78V642.49H543.05V160.22Z" stroke="#3C467E" stroke-miterlimit="10"/>
<path d="M482.77 99.9399H0.5V582.21H482.77V99.9399Z" stroke="#A70050" stroke-miterlimit="10"/>
</g>
<defs>
<clipPath id="clip0">
<rect width="566.42" height="904.65" fill="white"/>
</clipPath>
</defs>
</svg>
